<svg xmlns="http://www.w3.org/2000/svg" fill="none" viewBox="0 0 169 35"><path fill="#CC2229" fill-rule="evenodd" d="M17.288 27.901a3.98 3.98 0 0 0 0-7.962h-9.31v-6.031h8.518l.021.008a3.649 3.649 0 1 0 0-7.298L5.929 6.61v21.288l11.359.003Zm5.086-11.522a8.296 8.296 0 0 1 4.853 7.549h-.078l.023.002c0 5.496-4.456 9.968-9.952 9.968L5.973 33.9H0V.726h5.972L16.438.717c5.313 0 9.62 4.423 9.62 9.604l.015-.088a6.966 6.966 0 0 1-3.724 6.167l.025-.021Zm31.629 17.483-.005-10.648h-13.31v-5.97h13.307v-3.628a7.63 7.63 0 1 0-15.262 0l.018 20.246-5.91.004-.058-20.246c0-7.511 6.09-13.6 13.6-13.6 7.512 0 13.603 6.089 13.603 13.6l.009 20.246-5.992-.004ZM88.707 16.4l.022-.021a8.295 8.295 0 0 1 4.854 7.549l.002 9.934h-5.97l.009-9.942a3.98 3.98 0 0 0-3.98-3.98h-9.31v-6.032h8.518l.02.008a3.65 3.65 0 0 0 0-7.298L72.285 6.61l.025 27.29h-5.954V.726h5.971L82.795.717c5.313 0 9.62 4.423 9.62 9.604l.015-.088a6.966 6.966 0 0 1-3.723 6.167Zm24.682 17.464c-9.159 0-16.587-7.427-16.587-16.587C96.802 8.116 104.23.69 113.39.69h9.89l-.026 5.946h-9.889c-5.862 0-10.615 4.753-10.615 10.616 0 5.864 4.753 10.617 10.615 10.617h9.889l.026 5.996h-9.89Z" clip-rule="evenodd"/><path fill="#CC2229" fill-rule="evenodd" d="M142.681 28.522c6.229 0 11.278-5.05 11.278-11.278 0-6.23-5.049-11.28-11.278-11.28-6.23 0-11.28 5.05-11.28 11.28 0 6.228 5.05 11.278 11.28 11.278Zm0-4.643a6.634 6.634 0 1 0 .001-13.269 6.634 6.634 0 0 0-.001 13.269Zm-15.997-12.923C129.199 4.539 135.443 0 142.746 0c7.335 0 13.602 4.58 16.096 11.036l-.013-.04a4.641 4.641 0 0 0 4.339 2.984l.09-.014h5.056V20.6h-5.056l-.12.01a4.628 4.628 0 0 0-4.307 2.885l.017-.045c-2.491 6.465-8.761 11.049-16.102 11.049-7.277 0-13.502-4.506-16.058-10.933-.704-1.764-2.378-2.974-4.334-2.974l-5.413.008v-6.635l5.392.01a4.64 4.64 0 0 0 4.351-3.02Z" clip-rule="evenodd"/></svg>