<svg xmlns="http://www.w3.org/2000/svg" fill="none" viewBox="0 0 86 35"><path fill="#50A856" fill-rule="evenodd" d="M72.523 22.765c2.313-.754 4.093-1.481 4.223-4.249.078-1.494-.572-2.846-2.106-3.236-2.274-.585-4.353 1.534-3.651 3.756.273.883 1.026 1.338 1.69 1.897l-.156 1.832ZM1.495 21.336V34.5h9.59c6.38-.597 6.6-7.576 2.338-9.927 3.82-2.443 2.547-8.824-2.338-9.058H1.533C1.026 17.451.507 19.4 0 21.336h1.495Zm5.535-.728v2.664h1.91c1.39.013 1.56-2.664 0-2.664H7.03Zm0 5.978v2.677h1.91c1.39 0 1.56-2.664 0-2.677H7.03Zm23.767-6.341h-5.77v8.628c-.623 0-2 0-2-.884v-7.744h-5.835l-1.456 5.627h1.456v4.807c0 1.962 1.884 3.82 3.69 3.82h3.197l.949-1.507V34.5h5.77l1.455-5.627h-1.456v-8.628Zm9.603 0h-.559V18.32c0-.467-.636-2.807-2.144-2.807H32.11c.35 1.352.714 2.716 1.065 4.067.922 0 .922 0 .922.663H32.98l-1.624 6.16h2.741v8.095h5.744v-8.095h.558v8.095h5.796v-8.095h1.183l1.546-6.16h-2.728c0-.663 0-.663.87-.663l1.104-4.067h-5.626c-1.507 0-2.144 2.34-2.144 2.807v1.924Zm13.397 8.225h8.226c.05-2.716-.234-4.6-2.418-6.433-1.936-1.637-4.574-2.3-6.965-1.325-2.599 1.053-4.51 3.054-4.769 5.926-.26 2.755.923 4.912 3.145 6.47 1.91 1.34 4.392 1.547 6.627 1.132.923-.182 1.703-.495 2.56-.832.26-1.339.533-2.678.792-4.016-3.611 1.287-6.535.547-7.198-.922Zm3.587-2.95h-4.679c0-2.481 4.679-2.599 4.679 0Zm12.89-7.991h-1.832v-2.015l-5.717 1.001v1.014h-.338l-1.143 5.25h1.48V34.5h5.718V22.778h.585l1.247-5.25Zm5.822 11.63c-.325 1.182-.65 2.378-.975 3.56 1.13.832 1.638 1.17 3.028 1.455 1 .195 2.092.338 3.118.221 1.898-.233 3.353-1.17 3.938-3.002.246-.805.13-1.936-.195-2.702-.286-.689-.858-1.248-1.443-1.676-.65-.469-1.325-.702-2.053-1.001-.402-.17-.936-.209-.91-.754 0-.143.052-.22.182-.286.819-.39 1.832.052 2.56.403.403-1.144.82-2.287 1.221-3.43-.91-.624-1.572-1.13-2.65-1.443-.858-.26-1.729-.43-2.638-.325-.897.117-2.014.48-2.716 1.079-.728.623-1.156 1.43-1.352 2.365-.116.571-.104 1.26.092 1.819.273.767.727 1.507 1.325 2.053.637.572 1.43.87 2.182 1.26.287.143.481.183.624.339.403.48-.052.96-.572.883-.96-.13-1.856-.493-2.766-.818Z" clip-rule="evenodd"/><path fill="#E9B040" fill-rule="evenodd" d="M52.94.766a1.27 1.27 0 0 1 1.26 1.26 1.262 1.262 0 0 1-1.26 1.26c-.25.001-.493-.07-.702-.207l-2.78 9.11H30.952l-2.82-9.058c-.18.106-.388.16-.598.156a1.261 1.261 0 0 1-1.26-1.26 1.27 1.27 0 0 1 1.26-1.26 1.262 1.262 0 0 1 .832 2.209l3.236 3.014 1.95-3.08v-.415a1.256 1.256 0 0 1-.63-2.123A1.27 1.27 0 0 1 33.812 0a1.261 1.261 0 0 1 1.021 2.001 1.248 1.248 0 0 1-.631.455v.364l2.95 3.17 2.69-3.17v-.35A1.261 1.261 0 0 1 40.205 0a1.27 1.27 0 0 1 1.261 1.26 1.28 1.28 0 0 1-.975 1.235v.325l2.69 3.17 2.885-3.144v-.468a1.29 1.29 0 0 1-.663-1.117 1.262 1.262 0 0 1 1.26-1.26 1.27 1.27 0 0 1 1.262 1.26 1.26 1.26 0 0 1-1.209 1.26v.351l1.975 3.119 3.379-3.054a1.206 1.206 0 0 1-.39-.91A1.26 1.26 0 0 1 52.94.767Zm-8.447 20.92h.637v3.262h1.898v.585h-2.535v-3.847Zm-10.85 0h1.819c.026.014.04.014.04.014.337 0 .61.09.792.285.194.182.299.442.299.78 0 .208-.052.403-.156.558a.726.726 0 0 1-.403.326c.156.051.273.13.338.246.065.104.117.286.117.533l.04.546c.012.247.064.39.155.442v.117h-.715c-.026-.052-.038-.117-.065-.183a1.823 1.823 0 0 1-.026-.324l-.026-.468c-.013-.247-.065-.403-.156-.48-.09-.092-.234-.13-.454-.13h-.962v1.585h-.637v-3.847Zm.624.547v1.183h.922c.26 0 .456-.052.572-.143.117-.104.182-.247.182-.455 0-.209-.065-.364-.169-.456-.117-.091-.312-.13-.572-.13h-.935Zm3.04-.547h2.755v.56h-2.131v1.013h1.962v.533h-1.962v1.156h2.196v.585h-2.82v-3.847Zm5.757 1.638v.585h-2.002v-.585a1.01 1.01 0 0 1 1.001-1 .993.993 0 0 1 1.001 1Zm-2.638 0c0-.897.74-1.637 1.637-1.637.91 0 1.65.728 1.65 1.637v2.21h-.65v-.989h-2.001v.988h-.637v-2.209Z" clip-rule="evenodd"/></svg>