<svg xmlns="http://www.w3.org/2000/svg" fill="none" viewBox="0 0 196 35"><path fill="#313A7F" fill-rule="evenodd" d="M12.412 18.892v-6.755h6.481v6.755h-6.48Z" clip-rule="evenodd"/><path fill="#509A98" fill-rule="evenodd" d="M18.892.001v6.48H6.482v12.411H0V0l18.892.001Z" clip-rule="evenodd"/><path fill="#313A7F" fill-rule="evenodd" d="M195.355 20.153c0-3.864-1.509-7.42-4.407-10.135-2.857-2.677-6.749-4.207-10.72-4.207-3.971 0-7.9 1.53-10.76 4.207-2.898 2.715-4.408 6.234-4.408 10.135 0 4.36 1.945 8.298 5.519 11.052a15.915 15.915 0 0 0 9.648 3.295c3.971 0 7.78-1.5 10.72-4.213 2.86-2.639 4.408-6.232 4.408-10.134Zm-15.128 8.533c-5.189 0-8.521-3.775-8.521-8.512 0-4.7 3.484-8.547 8.521-8.547 4.962 0 8.484 3.847 8.484 8.547 0 4.737-3.447 8.512-8.484 8.512Zm-18.906-14.554.206-5.852c-2.384-1.07-5.833-2.508-9.535-2.508-9.787 0-15.9 6.272-15.9 14.341 0 8.223 6.21 13.726 15.71 13.726 3.249 0 7.489-1.13 10.162-2.584l.041-6.004c-2.508 1.743-6.755 3.503-10.119 3.305-4.503-.265-9.336-2.783-9.336-8.443 0-5.851 4.859-8.856 10.017-8.512 3.554.238 6.698 1.354 8.754 2.531Zm-48.64 17.185c2.847 1.583 5.775 2.797 9.183 2.797 6.58 0 10.277-3.292 10.277-8.225 0-3.443-2.639-6.574-7.579-8.662-3.284-1.389-5.537-1.474-5.537-3.998 0-1.798 1.091-2.17 3.64-2.17 2.015 0 5.166.379 8.321 2.371l.037-5.22c-2.937-1.714-5.189-2.437-8.727-2.437-6.373 0-10.296 3.404-10.362 7.725-.065 4.211 2.249 6.27 6.569 8.368 4.027 1.956 6.714 1.997 6.714 4.406 0 2.141-1.662 2.63-4.707 2.63-2.427 0-6.129-1.676-7.87-3.508l.041 5.923Zm-12.261 2.451h6.291V6.423h-6.291v27.345Zm-34.423 0h6.879V18.165l-.235-3.5 1.581 2.888 13.365 16.215h6.17V6.423h-6.705V21.72l.06 2.232-1.58-1.62-12.996-15.91h-6.54v27.345ZM51.89 23.365h-8.143l3.167-8.72c.124-.345.453-1.606.864-3.785.37 1.988.658 3.213.823 3.67l3.289 8.835ZM33.17 33.768h6.752l2.058-5.814h11.39l2.386 5.814h7.155L51.56 6.423h-7.197L33.171 33.768Zm-26.683 0h8.512c9.28 0 17.832-3.63 17.832-13.615S26.845 6.966 18.891 6.526v5.584c4.74.494 7.484 2.686 7.484 8.004 0 6.196-3.687 7.883-10.101 7.883h-3.817v-9.105h-5.97v14.876Z" clip-rule="evenodd"/></svg>